<svg width="1432" height="969" viewBox="0 0 1432 969" fill="none" xmlns="http://www.w3.org/2000/svg">
<path d="M0 130.5C0 110.894 15.8939 95 35.5 95V95C55.1061 95 71 110.894 71 130.5V253.5C71 273.106 55.1061 289 35.5 289V289C15.8939 289 0 273.106 0 253.5V130.5Z" fill="#2F4FC4"/>
<path d="M1306 524C1306 489.206 1334.21 461 1369 461V461C1403.79 461 1432 489.206 1432 524V806C1432 840.794 1403.79 869 1369 869V869C1334.21 869 1306 840.794 1306 806V524Z" fill="#2F4FC4"/>
<path d="M1160 740.5C1160 720.894 1175.89 705 1195.5 705V705C1215.11 705 1231 720.894 1231 740.5V933.5C1231 953.106 1215.11 969 1195.5 969V969C1175.89 969 1160 953.106 1160 933.5V740.5Z" fill="#2F4FC4"/>
<path d="M1312 19.5C1312 8.73045 1320.73 0 1331.5 0V0C1342.27 0 1351 8.73045 1351 19.5V164.5C1351 175.27 1342.27 184 1331.5 184V184C1320.73 184 1312 175.27 1312 164.5V19.5Z" fill="#2F4FC4"/>
<path d="M105 704.5C105 693.73 113.73 685 124.5 685V685C135.27 685 144 693.73 144 704.5V849.5C144 860.27 135.27 869 124.5 869V869C113.73 869 105 860.27 105 849.5V704.5Z" fill="#2F4FC4"/>
</svg>
