<svg width="1440" height="1024" viewBox="0 0 1440 1024" fill="none" xmlns="http://www.w3.org/2000/svg">
<rect width="1440" height="1024" fill="white"/>
<path d="M866.022 734.21V732.515L870.272 725.818H871.734V728.165H870.869L868.189 732.406V732.485H874.23V734.21H866.022ZM870.909 736V733.693L870.949 732.942V725.818H872.967V736H870.909ZM876.731 736.129C876.402 736.129 876.121 736.013 875.885 735.781C875.653 735.546 875.537 735.264 875.537 734.936C875.537 734.611 875.653 734.333 875.885 734.101C876.121 733.869 876.402 733.753 876.731 733.753C877.049 733.753 877.327 733.869 877.566 734.101C877.804 734.333 877.924 734.611 877.924 734.936C877.924 735.155 877.867 735.355 877.755 735.538C877.645 735.717 877.501 735.861 877.322 735.97C877.143 736.076 876.946 736.129 876.731 736.129ZM883.14 736.139C882.617 736.136 882.111 736.048 881.624 735.876C881.14 735.703 880.706 735.423 880.321 735.036C879.937 734.648 879.632 734.134 879.407 733.494C879.184 732.855 879.073 732.069 879.073 731.138C879.077 730.283 879.175 729.519 879.367 728.846C879.562 728.17 879.841 727.596 880.202 727.126C880.567 726.655 881.002 726.297 881.509 726.052C882.017 725.803 882.585 725.679 883.215 725.679C883.894 725.679 884.494 725.812 885.014 726.077C885.535 726.339 885.952 726.695 886.267 727.146C886.585 727.596 886.778 728.102 886.844 728.662H884.721C884.638 728.307 884.464 728.029 884.199 727.827C883.934 727.625 883.606 727.523 883.215 727.523C882.552 727.523 882.048 727.812 881.703 728.388C881.362 728.965 881.188 729.749 881.181 730.74H881.251C881.403 730.438 881.609 730.182 881.867 729.969C882.129 729.754 882.426 729.59 882.757 729.477C883.092 729.361 883.445 729.303 883.816 729.303C884.42 729.303 884.956 729.446 885.427 729.731C885.898 730.013 886.269 730.4 886.541 730.894C886.813 731.388 886.948 731.953 886.948 732.589C886.948 733.279 886.788 733.892 886.466 734.429C886.148 734.966 885.702 735.387 885.129 735.692C884.559 735.993 883.896 736.143 883.14 736.139ZM883.13 734.449C883.462 734.449 883.758 734.369 884.02 734.21C884.282 734.051 884.487 733.836 884.637 733.564C884.786 733.292 884.86 732.987 884.86 732.649C884.86 732.311 884.786 732.008 884.637 731.739C884.491 731.471 884.289 731.257 884.03 731.098C883.772 730.939 883.477 730.859 883.145 730.859C882.897 730.859 882.666 730.906 882.454 730.999C882.245 731.091 882.061 731.221 881.902 731.386C881.746 731.552 881.624 731.744 881.534 731.963C881.445 732.179 881.4 732.409 881.4 732.654C881.4 732.982 881.475 733.282 881.624 733.554C881.776 733.826 881.982 734.043 882.24 734.205C882.502 734.368 882.799 734.449 883.13 734.449Z" fill="white"/>
<path d="M1237 235.5C1237 224.73 1245.73 216 1256.5 216V216C1267.27 216 1276 224.73 1276 235.5V306.5C1276 317.27 1267.27 326 1256.5 326V326C1245.73 326 1237 317.27 1237 306.5V235.5Z" fill="#2F4FC4"/>
<path d="M1320 317.5C1320 306.73 1328.73 298 1339.5 298V298C1350.27 298 1359 306.73 1359 317.5V493.5C1359 504.27 1350.27 513 1339.5 513V513C1328.73 513 1320 504.27 1320 493.5V317.5Z" fill="#2F4FC4"/>
<path d="M981 467.5C981 447.894 996.894 432 1016.5 432V432C1036.11 432 1052 447.894 1052 467.5V660.5C1052 680.106 1036.11 696 1016.5 696V696C996.894 696 981 680.106 981 660.5V467.5Z" fill="#2F4FC4"/>
<path d="M1161.73 408.901L1167.85 393.107C1168.88 390.432 1170.7 388.132 1173.06 386.507C1175.42 384.882 1178.22 384.008 1181.08 384H1192.75C1195.62 384.008 1198.42 384.882 1200.78 386.507C1203.14 388.132 1204.95 390.432 1205.98 393.107L1212.1 408.901L1232.88 420.853L1249.67 418.292C1252.46 417.912 1255.31 418.373 1257.84 419.614C1260.38 420.856 1262.48 422.822 1263.9 425.264L1269.59 435.224C1271.05 437.705 1271.72 440.57 1271.52 443.441C1271.31 446.311 1270.24 449.053 1268.45 451.303L1258.06 464.536V488.441L1268.73 501.674C1270.53 503.925 1271.6 506.666 1271.8 509.537C1272 512.407 1271.33 515.272 1269.87 517.753L1264.18 527.713C1262.77 530.155 1260.66 532.121 1258.13 533.363C1255.59 534.604 1252.75 535.065 1249.95 534.685L1233.16 532.124L1212.39 544.077L1206.27 559.871C1205.24 562.544 1203.42 564.845 1201.06 566.47C1198.7 568.095 1195.9 568.969 1193.04 568.977H1181.08C1178.22 568.969 1175.42 568.095 1173.06 566.47C1170.7 564.845 1168.88 562.544 1167.85 559.871L1161.73 544.077L1140.96 532.124L1124.17 534.685C1121.37 535.065 1118.53 534.604 1115.99 533.363C1113.46 532.121 1111.35 530.155 1109.94 527.713L1104.25 517.753C1102.79 515.272 1102.12 512.407 1102.32 509.537C1102.52 506.666 1103.59 503.925 1105.39 501.674L1115.77 488.441V464.536L1105.1 451.303C1103.31 449.053 1102.24 446.311 1102.04 443.441C1101.83 440.57 1102.5 437.705 1103.96 435.224L1109.65 425.264C1111.07 422.822 1113.17 420.856 1115.71 419.614C1118.24 418.373 1121.09 417.912 1123.88 418.292L1140.67 420.853L1161.73 408.901ZM1158.46 476.489C1158.46 482.117 1160.13 487.619 1163.26 492.299C1166.38 496.979 1170.83 500.626 1176.03 502.78C1181.23 504.934 1186.95 505.498 1192.47 504.4C1197.99 503.302 1203.06 500.591 1207.04 496.611C1211.02 492.632 1213.73 487.561 1214.83 482.041C1215.93 476.52 1215.36 470.798 1213.21 465.598C1211.06 460.398 1207.41 455.954 1202.73 452.827C1198.05 449.7 1192.55 448.031 1186.92 448.031C1179.37 448.031 1172.13 451.029 1166.8 456.366C1161.46 461.703 1158.46 468.941 1158.46 476.489Z" stroke="#2F4FC4" stroke-linecap="round" stroke-linejoin="round"/>
<path d="M1094.21 323.827L1096.59 317.594C1096.99 316.539 1097.7 315.631 1098.61 314.989C1099.53 314.348 1100.62 314.003 1101.73 314H1106.27C1107.38 314.003 1108.47 314.348 1109.39 314.989C1110.3 315.631 1111.01 316.539 1111.41 317.594L1113.79 323.827L1121.86 328.544L1128.38 327.533C1129.47 327.383 1130.58 327.565 1131.56 328.055C1132.55 328.545 1133.37 329.321 1133.91 330.285L1136.13 334.215C1136.69 335.194 1136.95 336.325 1136.88 337.458C1136.8 338.591 1136.38 339.673 1135.68 340.561L1131.65 345.783V355.217L1135.79 360.439C1136.49 361.327 1136.91 362.409 1136.99 363.542C1137.07 364.675 1136.8 365.806 1136.24 366.785L1134.03 370.715C1133.48 371.679 1132.66 372.455 1131.67 372.945C1130.69 373.435 1129.58 373.617 1128.5 373.467L1121.97 372.456L1113.9 377.173L1111.52 383.406C1111.12 384.461 1110.41 385.369 1109.5 386.011C1108.58 386.652 1107.49 386.997 1106.38 387H1101.73C1100.62 386.997 1099.53 386.652 1098.61 386.011C1097.7 385.369 1096.99 384.461 1096.59 383.406L1094.21 377.173L1086.14 372.456L1079.61 373.467C1078.53 373.617 1077.42 373.435 1076.44 372.945C1075.45 372.455 1074.63 371.679 1074.09 370.715L1071.87 366.785C1071.31 365.806 1071.05 364.675 1071.12 363.542C1071.2 362.409 1071.62 361.327 1072.32 360.439L1076.35 355.217V345.783L1072.21 340.561C1071.51 339.673 1071.09 338.591 1071.01 337.458C1070.93 336.325 1071.2 335.194 1071.76 334.215L1073.97 330.285C1074.52 329.321 1075.34 328.545 1076.33 328.055C1077.31 327.565 1078.42 327.383 1079.5 327.533L1086.03 328.544L1094.21 323.827ZM1092.94 350.5C1092.94 352.721 1093.59 354.893 1094.8 356.739C1096.02 358.586 1097.75 360.026 1099.77 360.876C1101.79 361.726 1104.01 361.948 1106.16 361.515C1108.3 361.082 1110.27 360.012 1111.82 358.441C1113.37 356.871 1114.42 354.87 1114.85 352.691C1115.27 350.512 1115.05 348.254 1114.22 346.202C1113.38 344.15 1111.96 342.396 1110.14 341.162C1108.33 339.928 1106.19 339.269 1104 339.269C1101.07 339.269 1098.25 340.452 1096.18 342.559C1094.11 344.665 1092.94 347.521 1092.94 350.5Z" stroke="#2F4FC4" stroke-linecap="round" stroke-linejoin="round"/>
<line opacity="0.16" x1="770.5" y1="608" x2="770.5" y2="710" stroke="black"/>
<line opacity="0.16" x1="1052.5" y1="608" x2="1052.5" y2="710" stroke="black"/>
</svg>
