<svg width="305" height="720" viewBox="0 0 305 720" fill="none" xmlns="http://www.w3.org/2000/svg">
<path d="M0 243.5C0 232.73 8.73045 224 19.5 224V224C30.2696 224 39 232.73 39 243.5V388.5C39 399.27 30.2696 408 19.5 408V408C8.73045 408 0 399.27 0 388.5V243.5Z" fill="#2F4FC4"/>
<path d="M179 63C179 28.2061 207.206 0 242 0V0C276.794 0 305 28.2061 305 63V345C305 379.794 276.794 408 242 408V408C207.206 408 179 379.794 179 345V63Z" fill="#2F4FC4"/>
<path d="M108 491.5C108 471.894 123.894 456 143.5 456V456C163.106 456 179 471.894 179 491.5V684.5C179 704.106 163.106 720 143.5 720V720C123.894 720 108 704.106 108 684.5V491.5Z" fill="#2F4FC4"/>
</svg>
