<svg width="289" height="666" viewBox="0 0 289 666" fill="none" xmlns="http://www.w3.org/2000/svg">
<path d="M0 63C0 28.2061 28.2061 0 63 0V0C97.7939 0 126 28.2061 126 63V345C126 379.794 97.7939 408 63 408V408C28.2061 408 0 379.794 0 345V63Z" fill="#2F4FC4"/>
<path d="M170 437.5C170 417.894 185.894 402 205.5 402V402C225.106 402 241 417.894 241 437.5V630.5C241 650.106 225.106 666 205.5 666V666C185.894 666 170 650.106 170 630.5V437.5Z" fill="#2F4FC4"/>
<path d="M250 131.5C250 120.73 258.73 112 269.5 112V112C280.27 112 289 120.73 289 131.5V276.5C289 287.27 280.27 296 269.5 296V296C258.73 296 250 287.27 250 276.5V131.5Z" fill="#2F4FC4"/>
</svg>
