<svg width="374" height="83" viewBox="0 0 374 83" fill="none" xmlns="http://www.w3.org/2000/svg">
<path d="M40.7716 25.1528C40.948 22.8553 40.6544 20.5459 39.909 18.3656C39.1635 16.1852 37.9818 14.1796 36.4357 12.4709C34.8897 10.7623 33.0119 9.38644 30.9167 8.42734C28.8215 7.46823 26.5529 6.94594 24.2493 6.89234C21.9457 6.83873 19.6552 7.25492 17.5177 8.11553C15.3802 8.97614 13.4404 10.2631 11.8166 11.898C10.1928 13.5329 8.91897 15.4814 8.0729 17.6247C7.22682 19.768 6.8262 22.0612 6.89545 24.3645L20.4007 23.9584C20.3866 23.4893 20.4681 23.0223 20.6405 22.5858C20.8128 22.1493 21.0722 21.7524 21.4029 21.4195C21.7336 21.0865 22.1287 20.8244 22.564 20.6491C22.9993 20.4738 23.4658 20.3891 23.935 20.4C24.4041 20.4109 24.8662 20.5173 25.2929 20.7126C25.7196 20.9079 26.102 21.1881 26.4169 21.5361C26.7317 21.8841 26.9724 22.2926 27.1242 22.7366C27.2761 23.1807 27.3358 23.651 27.2999 24.1189L40.7716 25.1528Z" fill="#2F4FC4"/>
<path d="M61.2675 57.8472C61.4438 60.1447 61.1503 62.4541 60.4048 64.6344C59.6594 66.8148 58.4776 68.8204 56.9316 70.5291C55.3856 72.2377 53.5077 73.6136 51.4126 74.5727C49.3174 75.5318 47.0488 76.0541 44.7452 76.1077C42.4415 76.1613 40.1511 75.7451 38.0136 74.8845C35.8761 74.0239 33.9362 72.7369 32.3124 71.102C30.6886 69.4671 29.4148 67.5186 28.5687 65.3753C27.7227 63.232 27.322 60.9388 27.3913 58.6355L40.8965 59.0416C40.8824 59.5107 40.964 59.9777 41.1363 60.4142C41.3086 60.8507 41.568 61.2476 41.8988 61.5805C42.2295 61.9135 42.6245 62.1756 43.0599 62.3509C43.4952 62.5262 43.9617 62.6109 44.4308 62.6C44.9 62.5891 45.362 62.4827 45.7887 62.2874C46.2154 62.0921 46.5979 61.8119 46.9127 61.4639C47.2276 61.1159 47.4683 60.7074 47.6201 60.2634C47.7719 59.8193 47.8317 59.349 47.7958 58.8811L61.2675 57.8472Z" fill="#2F4FC4"/>
<path d="M27.2827 24.4322C27.2827 20.684 30.3212 17.6455 34.0694 17.6455V17.6455C37.8176 17.6455 40.8562 20.684 40.8562 24.4322V59.7232C40.8562 63.4714 37.8176 66.5099 34.0694 66.5099V66.5099C30.3212 66.5099 27.2827 63.4714 27.2827 59.7232V24.4322Z" fill="#2F4FC4"/>
<path d="M47.6428 24.4322C47.6428 20.684 50.6813 17.6455 54.4295 17.6455V17.6455C58.1777 17.6455 61.2163 20.684 61.2163 24.4322V59.7232C61.2163 63.4714 58.1777 66.5099 54.4295 66.5099V66.5099C50.6813 66.5099 47.6428 63.4714 47.6428 59.7232V24.4322Z" fill="#2F4FC4"/>
<path d="M6.92236 24.2965C6.92236 20.5483 9.96088 17.5098 13.7091 17.5098V17.5098C17.4573 17.5098 20.4958 20.5483 20.4958 24.2965V59.5874C20.4958 63.3356 17.4573 66.3741 13.7091 66.3741V66.3741C9.96088 66.3741 6.92236 63.3356 6.92236 59.5874V24.2965Z" fill="#2F4FC4"/>
<path d="M57.481 10.609C55.6003 9.94903 53.5518 9.94903 51.6711 10.609L36.8188 15.8209C35.2495 16.3734 35.2495 18.5993 36.8188 19.1518L51.6711 24.3637C53.5518 25.0237 55.6003 25.0237 57.481 24.3637L68.247 20.5821C68.643 20.8761 68.9402 21.2842 69.099 21.7519C68.8415 21.9307 68.6307 22.1689 68.4842 22.4466C68.3378 22.7242 68.26 23.033 68.2575 23.3471C68.2551 23.6611 68.3279 23.9711 68.4699 24.2511C68.6119 24.531 68.819 24.7726 69.0736 24.9554L69.0658 24.9907L67.3558 32.7087C67.3178 32.8804 67.3187 33.0585 67.3585 33.2298C67.3982 33.4011 67.4758 33.5613 67.5855 33.6985C67.6952 33.8358 67.8343 33.9466 67.9924 34.0229C68.1505 34.0991 68.3236 34.1388 68.4991 34.139H71.921C72.0966 34.1391 72.2699 34.0996 72.4283 34.0235C72.5866 33.9474 72.7259 33.8366 72.8358 33.6993C72.9458 33.562 73.0235 33.4017 73.0634 33.2303C73.1033 33.0588 73.1042 32.8805 73.0662 32.7087L71.3562 24.9888L71.3464 24.9554C71.6202 24.7593 71.8389 24.4955 71.9812 24.1898C72.1235 23.884 72.1847 23.5466 72.1587 23.2101C72.1328 22.8737 72.0206 22.5497 71.8331 22.2695C71.6456 21.9893 71.3891 21.7624 71.0885 21.6108C70.9445 20.9798 70.6695 20.3862 70.2813 19.8689L72.3333 19.1498C73.9045 18.5973 73.9045 16.3715 72.3333 15.8189L57.481 10.609Z" fill="#2F4FC4"/>
<path d="M111.694 34.875C111.455 34.0455 111.12 33.3125 110.688 32.6761C110.256 32.0284 109.728 31.483 109.103 31.0398C108.489 30.5852 107.784 30.2386 106.989 30C106.205 29.7614 105.336 29.642 104.381 29.642C102.597 29.642 101.029 30.0852 99.6765 30.9716C98.3356 31.858 97.2901 33.1477 96.5401 34.8409C95.7901 36.5227 95.4151 38.5795 95.4151 41.0114C95.4151 43.4432 95.7844 45.5114 96.5231 47.2159C97.2617 48.9205 98.3072 50.2216 99.6594 51.1193C101.012 52.0057 102.608 52.4489 104.449 52.4489C106.12 52.4489 107.546 52.1534 108.728 51.5625C109.921 50.9602 110.83 50.1136 111.455 49.0227C112.091 47.9318 112.409 46.642 112.409 45.1534L113.909 45.375H104.909V39.8182H119.517V44.2159C119.517 47.2841 118.87 49.9205 117.574 52.125C116.279 54.3182 114.495 56.0114 112.222 57.2045C109.949 58.3864 107.347 58.9773 104.415 58.9773C101.142 58.9773 98.2674 58.2557 95.7901 56.8125C93.3129 55.358 91.381 53.2955 89.9947 50.625C88.6197 47.9432 87.9322 44.7614 87.9322 41.0795C87.9322 38.25 88.3413 35.7273 89.1594 33.5114C89.989 31.2841 91.1481 29.3977 92.6367 27.8523C94.1254 26.3068 95.8583 25.1307 97.8356 24.3239C99.8129 23.517 101.955 23.1136 104.262 23.1136C106.239 23.1136 108.08 23.4034 109.784 23.983C111.489 24.5511 113 25.358 114.319 26.4034C115.648 27.4489 116.733 28.6932 117.574 30.1364C118.415 31.5682 118.955 33.1477 119.194 34.875H111.694ZM124.925 58.5V32.3182H131.965V36.8864H132.238C132.715 35.2614 133.516 34.0341 134.641 33.2045C135.766 32.3636 137.061 31.9432 138.527 31.9432C138.891 31.9432 139.283 31.9659 139.703 32.0114C140.124 32.0568 140.493 32.1193 140.811 32.1989V38.642C140.471 38.5398 139.999 38.4489 139.397 38.3693C138.794 38.2898 138.243 38.25 137.743 38.25C136.675 38.25 135.721 38.483 134.88 38.9489C134.05 39.4034 133.391 40.0398 132.902 40.858C132.425 41.6761 132.186 42.6193 132.186 43.6875V58.5H124.925ZM155.176 59.0114C152.529 59.0114 150.239 58.4489 148.307 57.3239C146.387 56.1875 144.904 54.608 143.858 52.5852C142.813 50.5511 142.29 48.1932 142.29 45.5114C142.29 42.8068 142.813 40.4432 143.858 38.4205C144.904 36.3864 146.387 34.8068 148.307 33.6818C150.239 32.5455 152.529 31.9773 155.176 31.9773C157.824 31.9773 160.108 32.5455 162.029 33.6818C163.961 34.8068 165.449 36.3864 166.495 38.4205C167.54 40.4432 168.063 42.8068 168.063 45.5114C168.063 48.1932 167.54 50.5511 166.495 52.5852C165.449 54.608 163.961 56.1875 162.029 57.3239C160.108 58.4489 157.824 59.0114 155.176 59.0114ZM155.211 53.3864C156.415 53.3864 157.421 53.0455 158.228 52.3636C159.034 51.6705 159.642 50.7273 160.051 49.5341C160.472 48.3409 160.682 46.983 160.682 45.4602C160.682 43.9375 160.472 42.5795 160.051 41.3864C159.642 40.1932 159.034 39.25 158.228 38.5568C157.421 37.8636 156.415 37.517 155.211 37.517C153.995 37.517 152.972 37.8636 152.142 38.5568C151.324 39.25 150.705 40.1932 150.284 41.3864C149.875 42.5795 149.671 43.9375 149.671 45.4602C149.671 46.983 149.875 48.3409 150.284 49.5341C150.705 50.7273 151.324 51.6705 152.142 52.3636C152.972 53.0455 153.995 53.3864 155.211 53.3864ZM177.293 58.5L170.168 32.3182H177.515L181.571 49.9091H181.81L186.037 32.3182H193.248L197.543 49.8068H197.765L201.753 32.3182H209.083L201.975 58.5H194.287L189.787 42.0341H189.463L184.963 58.5H177.293ZM212.956 68.3182V32.3182H220.115V36.7159H220.439C220.757 36.0114 221.218 35.2955 221.82 34.5682C222.434 33.8295 223.229 33.2159 224.206 32.7273C225.195 32.2273 226.422 31.9773 227.888 31.9773C229.797 31.9773 231.559 32.4773 233.172 33.4773C234.786 34.4659 236.076 35.9602 237.042 37.9602C238.007 39.9489 238.49 42.4432 238.49 45.4432C238.49 48.3636 238.019 50.8295 237.076 52.8409C236.144 54.8409 234.871 56.358 233.257 57.392C231.655 58.4148 229.86 58.9261 227.871 58.9261C226.462 58.9261 225.263 58.6932 224.275 58.2273C223.297 57.7614 222.496 57.1761 221.871 56.4716C221.246 55.7557 220.769 55.0341 220.439 54.3068H220.218V68.3182H212.956ZM220.064 45.4091C220.064 46.9659 220.28 48.3239 220.712 49.483C221.144 50.642 221.769 51.5455 222.587 52.1932C223.405 52.8295 224.4 53.1477 225.57 53.1477C226.752 53.1477 227.752 52.8239 228.57 52.1761C229.388 51.517 230.007 50.608 230.428 49.4489C230.86 48.2784 231.076 46.9318 231.076 45.4091C231.076 43.8977 230.865 42.5682 230.445 41.4205C230.025 40.2727 229.405 39.375 228.587 38.7273C227.769 38.0795 226.763 37.7557 225.57 37.7557C224.388 37.7557 223.388 38.0682 222.57 38.6932C221.763 39.3182 221.144 40.2045 220.712 41.3523C220.28 42.5 220.064 43.8523 220.064 45.4091ZM250.797 58.9943C249.127 58.9943 247.638 58.7045 246.331 58.125C245.025 57.5341 243.99 56.6648 243.229 55.517C242.479 54.358 242.104 52.9148 242.104 51.1875C242.104 49.733 242.371 48.5114 242.905 47.5227C243.439 46.5341 244.167 45.7386 245.087 45.1364C246.007 44.5341 247.053 44.0795 248.223 43.7727C249.405 43.4659 250.644 43.25 251.939 43.125C253.462 42.9659 254.689 42.8182 255.621 42.6818C256.553 42.5341 257.229 42.3182 257.65 42.0341C258.07 41.75 258.28 41.3295 258.28 40.7727V40.6705C258.28 39.5909 257.939 38.7557 257.257 38.1648C256.587 37.5739 255.632 37.2784 254.394 37.2784C253.087 37.2784 252.047 37.5682 251.275 38.1477C250.502 38.7159 249.99 39.4318 249.74 40.2955L243.025 39.75C243.365 38.1591 244.036 36.7841 245.036 35.625C246.036 34.4545 247.326 33.5568 248.905 32.9318C250.496 32.2955 252.337 31.9773 254.428 31.9773C255.882 31.9773 257.275 32.1477 258.604 32.4886C259.945 32.8295 261.132 33.358 262.167 34.0739C263.212 34.7898 264.036 35.7102 264.638 36.8352C265.24 37.9489 265.542 39.2841 265.542 40.8409V58.5H258.655V54.8693H258.451C258.03 55.6875 257.468 56.4091 256.763 57.0341C256.059 57.6477 255.212 58.1307 254.223 58.483C253.235 58.8239 252.093 58.9943 250.797 58.9943ZM252.877 53.983C253.945 53.983 254.888 53.7727 255.706 53.3523C256.525 52.9205 257.167 52.3409 257.632 51.6136C258.098 50.8864 258.331 50.0625 258.331 49.142V46.3636C258.104 46.5114 257.792 46.6477 257.394 46.7727C257.007 46.8864 256.57 46.9943 256.081 47.0966C255.593 47.1875 255.104 47.2727 254.615 47.3523C254.127 47.4205 253.684 47.483 253.286 47.5398C252.434 47.6648 251.689 47.8636 251.053 48.1364C250.417 48.4091 249.922 48.7784 249.57 49.2443C249.218 49.6989 249.042 50.267 249.042 50.9489C249.042 51.9375 249.4 52.6932 250.115 53.2159C250.843 53.7273 251.763 53.983 252.877 53.983ZM285.101 32.3182V37.7727H269.334V32.3182H285.101ZM272.914 26.0455H280.175V50.4545C280.175 51.125 280.277 51.6477 280.482 52.0227C280.686 52.3864 280.971 52.642 281.334 52.7898C281.709 52.9375 282.141 53.0114 282.63 53.0114C282.971 53.0114 283.311 52.983 283.652 52.9261C283.993 52.858 284.255 52.8068 284.436 52.7727L285.578 58.1761C285.215 58.2898 284.703 58.4205 284.044 58.5682C283.385 58.7273 282.584 58.8239 281.641 58.858C279.891 58.9261 278.357 58.6932 277.039 58.1591C275.732 57.625 274.715 56.7955 273.988 55.6705C273.26 54.5455 272.902 53.125 272.914 51.4091V26.0455ZM297.655 43.3636V58.5H290.394V23.5909H297.451V36.9375H297.757C298.348 35.392 299.303 34.1818 300.621 33.3068C301.939 32.4205 303.593 31.9773 305.581 31.9773C307.4 31.9773 308.985 32.375 310.337 33.1705C311.701 33.9545 312.757 35.0852 313.507 36.5625C314.269 38.0284 314.644 39.7841 314.632 41.8295V58.5H307.371V43.125C307.382 41.5114 306.973 40.2557 306.144 39.358C305.326 38.4602 304.178 38.0114 302.701 38.0114C301.712 38.0114 300.837 38.2216 300.076 38.642C299.326 39.0625 298.735 39.6761 298.303 40.483C297.882 41.2784 297.667 42.2386 297.655 43.3636ZM324.591 58.9432C323.466 58.9432 322.5 58.5455 321.694 57.75C320.898 56.9432 320.5 55.9773 320.5 54.8523C320.5 53.7386 320.898 52.7841 321.694 51.9886C322.5 51.1932 323.466 50.7955 324.591 50.7955C325.682 50.7955 326.637 51.1932 327.455 51.9886C328.273 52.7841 328.682 53.7386 328.682 54.8523C328.682 55.6023 328.489 56.2898 328.103 56.9148C327.728 57.5284 327.233 58.0227 326.62 58.3977C326.006 58.7614 325.33 58.9432 324.591 58.9432Z" fill="#2F4FC4"/>
</svg>
