<svg width="110" height="68" viewBox="0 0 110 68" fill="none" xmlns="http://www.w3.org/2000/svg">
<path d="M35.6264 48.4545H36.9545V58.0852C36.9545 59.0748 36.7225 59.9602 36.2585 60.7415C35.7945 61.518 35.1482 62.1312 34.3196 62.581C33.4957 63.026 32.5369 63.2486 31.4432 63.2486C30.3542 63.2486 29.3954 63.0237 28.5668 62.5739C27.7382 62.1241 27.0919 61.5109 26.6278 60.7344C26.1638 59.9579 25.9318 59.0748 25.9318 58.0852V48.4545H27.2599V57.9929C27.2599 58.7647 27.4328 59.4536 27.7784 60.0597C28.1241 60.661 28.6094 61.1345 29.2344 61.4801C29.8641 61.8258 30.6004 61.9986 31.4432 61.9986C32.286 61.9986 33.0223 61.8258 33.652 61.4801C34.2817 61.1345 34.767 60.661 35.108 60.0597C35.4536 59.4536 35.6264 58.7647 35.6264 57.9929V48.4545ZM47.8814 54.4844L46.7237 54.8111C46.6101 54.4844 46.4491 54.1884 46.2408 53.9233C46.0324 53.6581 45.7602 53.4474 45.424 53.2912C45.0926 53.1349 44.6806 53.0568 44.1882 53.0568C43.4496 53.0568 42.8435 53.232 42.37 53.5824C41.8965 53.9328 41.6598 54.3849 41.6598 54.9389C41.6598 55.4077 41.8208 55.7888 42.1428 56.0824C42.4695 56.3712 42.9714 56.6009 43.6484 56.7713L45.2962 57.1761C46.21 57.3987 46.8942 57.7514 47.3487 58.2344C47.808 58.7173 48.0376 59.3234 48.0376 60.0526C48.0376 60.6681 47.8672 61.215 47.5263 61.6932C47.1854 62.1714 46.7095 62.5478 46.0987 62.8224C45.4927 63.0923 44.7895 63.2273 43.9893 63.2273C42.924 63.2273 42.0457 62.9882 41.3544 62.5099C40.6631 62.027 40.2204 61.331 40.0263 60.4219L41.2408 60.1236C41.397 60.7723 41.7024 61.2623 42.157 61.5938C42.6162 61.9252 43.2199 62.0909 43.968 62.0909C44.8061 62.0909 45.4761 61.9039 45.978 61.5298C46.4799 61.151 46.7308 60.6776 46.7308 60.1094C46.7308 59.669 46.584 59.2997 46.2905 59.0014C45.9969 58.6984 45.5518 58.4759 44.9553 58.3338L43.1726 57.9077C42.2256 57.6804 41.5249 57.3205 41.0703 56.8281C40.6158 56.3357 40.3885 55.7249 40.3885 54.9957C40.3885 54.3944 40.5518 53.8665 40.8786 53.4119C41.2053 52.9527 41.6551 52.5928 42.228 52.3324C42.8009 52.072 43.4543 51.9418 44.1882 51.9418C45.1873 51.9418 45.9851 52.169 46.5817 52.6236C47.183 53.0734 47.6162 53.6937 47.8814 54.4844ZM55.2163 63.2273C54.1983 63.2273 53.3176 62.9905 52.5742 62.517C51.8308 62.0388 51.2556 61.3783 50.8484 60.5355C50.4459 59.688 50.2447 58.7126 50.2447 57.6094C50.2447 56.5109 50.4459 55.5355 50.8484 54.6832C51.2556 53.8262 51.8166 53.1562 52.5316 52.6733C53.2513 52.1856 54.0823 51.9418 55.0245 51.9418C55.6164 51.9418 56.1869 52.0507 56.7362 52.2685C57.2854 52.4815 57.7778 52.8106 58.2134 53.2557C58.6538 53.696 59.0018 54.2524 59.2575 54.9247C59.5131 55.5923 59.641 56.383 59.641 57.2969V57.9219H51.1183V56.8068H58.3484C58.3484 56.1061 58.2063 55.4763 57.9222 54.9176C57.6429 54.3542 57.2522 53.9091 56.7504 53.5824C56.2532 53.2557 55.6779 53.0923 55.0245 53.0923C54.3332 53.0923 53.7248 53.277 53.1992 53.6463C52.6737 54.0156 52.2617 54.5033 51.9634 55.1094C51.6699 55.7154 51.5207 56.3783 51.516 57.098V57.7656C51.516 58.6321 51.6651 59.3897 51.9634 60.0384C52.2665 60.6823 52.695 61.1818 53.2489 61.5369C53.8029 61.892 54.4587 62.0696 55.2163 62.0696C55.7324 62.0696 56.1845 61.9891 56.5728 61.8281C56.9658 61.6671 57.2949 61.4517 57.56 61.1818C57.8299 60.9072 58.0335 60.6065 58.1708 60.2798L59.3711 60.6705C59.2054 61.1297 58.9331 61.5535 58.5543 61.9418C58.1803 62.33 57.7115 62.6425 57.1481 62.8793C56.5894 63.1113 55.9454 63.2273 55.2163 63.2273ZM62.4268 63V52.0909H63.6555V53.767H63.7479C63.9657 53.2178 64.3445 52.7751 64.8842 52.4389C65.4287 52.098 66.0443 51.9276 66.7308 51.9276C66.835 51.9276 66.951 51.9299 67.0788 51.9347C67.2067 51.9394 67.3132 51.9441 67.3984 51.9489V53.2344C67.3416 53.2249 67.2422 53.2107 67.1001 53.1918C66.9581 53.1728 66.8042 53.1634 66.6385 53.1634C66.0703 53.1634 65.5637 53.2841 65.1186 53.5256C64.6783 53.7623 64.3303 54.0914 64.0746 54.5128C63.8189 54.9342 63.6911 55.4148 63.6911 55.9545V63H62.4268ZM76.8853 54.4844L75.7276 54.8111C75.614 54.4844 75.453 54.1884 75.2447 53.9233C75.0363 53.6581 74.7641 53.4474 74.4279 53.2912C74.0965 53.1349 73.6845 53.0568 73.1921 53.0568C72.4535 53.0568 71.8474 53.232 71.3739 53.5824C70.9004 53.9328 70.6637 54.3849 70.6637 54.9389C70.6637 55.4077 70.8247 55.7888 71.1467 56.0824C71.4734 56.3712 71.9753 56.6009 72.6523 56.7713L74.3001 57.1761C75.2139 57.3987 75.8981 57.7514 76.3526 58.2344C76.8119 58.7173 77.0415 59.3234 77.0415 60.0526C77.0415 60.6681 76.8711 61.215 76.5302 61.6932C76.1893 62.1714 75.7134 62.5478 75.1026 62.8224C74.4966 63.0923 73.7934 63.2273 72.9933 63.2273C71.9279 63.2273 71.0496 62.9882 70.3583 62.5099C69.667 62.027 69.2243 61.331 69.0302 60.4219L70.2447 60.1236C70.4009 60.7723 70.7063 61.2623 71.1609 61.5938C71.6201 61.9252 72.2238 62.0909 72.9719 62.0909C73.81 62.0909 74.48 61.9039 74.9819 61.5298C75.4838 61.151 75.7347 60.6776 75.7347 60.1094C75.7347 59.669 75.588 59.2997 75.2944 59.0014C75.0008 58.6984 74.5558 58.4759 73.9592 58.3338L72.1765 57.9077C71.2295 57.6804 70.5288 57.3205 70.0742 56.8281C69.6197 56.3357 69.3924 55.7249 69.3924 54.9957C69.3924 54.3944 69.5558 53.8665 69.8825 53.4119C70.2092 52.9527 70.659 52.5928 71.2319 52.3324C71.8048 52.072 72.4582 51.9418 73.1921 51.9418C74.1912 51.9418 74.989 52.169 75.5856 52.6236C76.1869 53.0734 76.6201 53.6937 76.8853 54.4844Z" fill="#121212"/>
<path d="M10.0994 30.8068V13.1136H14.1136V30.8068H10.0994ZM3.25994 23.9673V19.9531H20.9531V23.9673H3.25994ZM37.1985 8.81818V35H32.4556V13.4332H32.3022L26.1786 17.3452V12.9986L32.6857 8.81818H37.1985ZM47.8892 31.4205L47.723 32.8267C47.6037 33.9006 47.3906 34.9915 47.0838 36.0994C46.7855 37.2159 46.4702 38.2429 46.1378 39.1804C45.8054 40.1179 45.5369 40.8551 45.3324 41.392H42.2131C42.3324 40.8722 42.4943 40.1648 42.6989 39.2699C42.9119 38.375 43.1165 37.3693 43.3125 36.2528C43.5085 35.1364 43.6406 34.0028 43.7088 32.8523L43.7983 31.4205H47.8892ZM53.022 35V31.5739L62.1115 22.6634C62.9808 21.7855 63.7053 21.0057 64.2848 20.3239C64.8643 19.642 65.299 18.9815 65.5888 18.3423C65.8786 17.7031 66.0234 17.0213 66.0234 16.2969C66.0234 15.4702 65.8359 14.7628 65.4609 14.1747C65.0859 13.5781 64.5703 13.1179 63.9141 12.794C63.2578 12.4702 62.5121 12.3082 61.6768 12.3082C60.8161 12.3082 60.0618 12.4872 59.4141 12.8452C58.7663 13.1946 58.2635 13.6932 57.9055 14.3409C57.5561 14.9886 57.3814 15.7599 57.3814 16.6548H52.8686C52.8686 14.9929 53.2479 13.5483 54.0064 12.321C54.7649 11.0937 55.8089 10.1435 57.1385 9.47017C58.4766 8.79687 60.0107 8.46023 61.7408 8.46023C63.4964 8.46023 65.0391 8.78835 66.3686 9.4446C67.6982 10.1009 68.7294 11 69.4624 12.142C70.2038 13.2841 70.5746 14.5881 70.5746 16.054C70.5746 17.0341 70.3871 17.9972 70.0121 18.9432C69.6371 19.8892 68.9766 20.9375 68.0305 22.0881C67.093 23.2386 65.7763 24.6321 64.0803 26.2685L59.5675 30.858V31.0369H70.9709V35H53.022ZM75.6371 8.81818H81.4411L89.2138 27.7898H89.5206L97.2933 8.81818H103.097V35H98.5462V17.0128H98.3033L91.0675 34.9233H87.6669L80.4311 16.9744H80.1882V35H75.6371V8.81818Z" fill="#121212"/>
</svg>
